<svg width="21" height="20" viewBox="0 0 21 20" fill="none" xmlns="http://www.w3.org/2000/svg">
<g clip-path="url(#clip0_793_1538)">
<path d="M10.4996 0.400391C9.22657 0.400391 8.00567 0.906103 7.1055 1.80628C6.20532 2.70645 5.69961 3.92735 5.69961 5.20039C5.69961 6.47343 6.20532 7.69433 7.1055 8.5945C8.00567 9.49468 9.22657 10.0004 10.4996 10.0004C11.7726 10.0004 12.9935 9.49468 13.8937 8.5945C14.7939 7.69433 15.2996 6.47343 15.2996 5.20039C15.2996 3.92735 14.7939 2.70645 13.8937 1.80628C12.9935 0.906103 11.7726 0.400391 10.4996 0.400391ZM6.89961 5.20039C6.89961 4.24561 7.27889 3.32994 7.95403 2.65481C8.62916 1.97968 9.54483 1.60039 10.4996 1.60039C11.4544 1.60039 12.3701 1.97968 13.0452 2.65481C13.7203 3.32994 14.0996 4.24561 14.0996 5.20039C14.0996 6.15517 13.7203 7.07084 13.0452 7.74598C12.3701 8.42111 11.4544 8.80039 10.4996 8.80039C9.54483 8.80039 8.62916 8.42111 7.95403 7.74598C7.27889 7.07084 6.89961 6.15517 6.89961 5.20039ZM4.51041 11.2004C4.19437 11.1991 3.8812 11.2603 3.58884 11.3803C3.29648 11.5003 3.03069 11.6769 2.80672 11.8999C2.58275 12.1228 2.40499 12.3878 2.28365 12.6796C2.16231 12.9715 2.09976 13.2844 2.09961 13.6004C2.09961 15.6296 3.09921 17.1596 4.66161 18.1568C5.91921 18.9584 7.53561 19.4144 9.29961 19.5524V18.3488C7.71801 18.212 6.33801 17.8004 5.30721 17.1428C4.04721 16.34 3.29961 15.1724 3.29961 13.6004C3.29961 12.9368 3.83721 12.4004 4.51041 12.4004H13.0376C13.1441 11.978 13.3123 11.5737 13.5368 11.2004H4.51041ZM10.6784 20.6228C10.7328 20.6796 10.7982 20.7246 10.8706 20.7552C10.9431 20.7857 11.021 20.8011 11.0996 20.8004H13.4996C13.6141 20.8003 13.7268 20.7714 13.8272 20.7164C13.9071 20.6682 13.9697 20.596 14.006 20.51C14.044 20.42 14.069 20.325 14.0804 20.228C14.093 20.1257 14.0994 20.0227 14.0996 19.9196V19.6004C14.3876 19.5944 14.612 19.5848 14.7752 19.5728C14.9099 19.5709 15.0393 19.5206 15.14 19.4312C15.2281 19.3331 15.278 19.2066 15.2804 19.0748C15.2924 18.9188 15.2996 18.6944 15.2996 18.4004H15.8996C16.0316 18.4004 16.1372 18.3728 16.2188 18.3164C16.2968 18.2635 16.361 18.1927 16.406 18.11C16.4516 18.0222 16.4802 17.9265 16.49 17.828C16.502 17.7224 16.5092 17.612 16.5092 17.5004C16.503 17.4097 16.4998 17.3189 16.4996 17.228V16.994C16.706 17.0696 16.9148 17.1224 17.1272 17.1536C17.3408 17.1848 17.5556 17.2004 17.7752 17.2004C18.2422 17.1995 18.7042 17.1035 19.1329 16.9182C19.5616 16.733 19.9481 16.4623 20.2688 16.1228C20.5928 15.7844 20.846 15.4004 21.0272 14.9696C21.2084 14.5376 21.2996 14.0816 21.2996 13.6004C21.2996 13.1 21.206 12.632 21.0188 12.194C20.8382 11.7669 20.5771 11.3787 20.2496 11.0504C19.9212 10.7234 19.533 10.4626 19.106 10.2824C18.6614 10.0931 18.1828 9.99716 17.6996 10.0004C17.2271 10.0092 16.7603 10.1044 16.322 10.2812C15.8947 10.4532 15.5056 10.7081 15.1772 11.0312C14.8477 11.3547 14.5808 11.7363 14.39 12.1568C14.1954 12.5864 14.0963 13.0531 14.0996 13.5248C14.0996 13.8188 14.1344 14.1284 14.2028 14.4536L10.6772 17.978C10.6203 18.0325 10.5751 18.0981 10.5446 18.1708C10.5141 18.2434 10.4987 18.3216 10.4996 18.4004V20.2004C10.4996 20.3624 10.5596 20.504 10.6772 20.6228H10.6784ZM19.2368 12.0632C19.3218 12.1458 19.389 12.245 19.4342 12.3546C19.4794 12.4642 19.5017 12.5819 19.4996 12.7004C19.5017 12.8189 19.4794 12.9366 19.4342 13.0462C19.389 13.1558 19.3218 13.255 19.2368 13.3376C19.1542 13.4226 19.055 13.4898 18.9454 13.535C18.8358 13.5802 18.7181 13.6024 18.5996 13.6004C18.4811 13.6024 18.3634 13.5802 18.2538 13.535C18.1442 13.4898 18.045 13.4226 17.9624 13.3376C17.8774 13.255 17.8102 13.1558 17.765 13.0462C17.7198 12.9366 17.6976 12.8189 17.6996 12.7004C17.6996 12.4508 17.7872 12.2384 17.9624 12.0632C18.045 11.9782 18.1442 11.911 18.2538 11.8658C18.3634 11.8206 18.4811 11.7983 18.5996 11.8004C18.8492 11.8004 19.0616 11.888 19.2368 12.0632Z" fill="#666666"/>
</g>
<defs>
<clipPath id="clip0_793_1538">
<rect width="20" height="20" fill="white" transform="translate(0.5)"/>
</clipPath>
</defs>
</svg>
